<?xml version="1.0" standalone="no"?>
<!DOCTYPE svg PUBLIC "-//W3C//DTD SVG 20010904//EN"
 "http://www.w3.org/TR/2001/REC-SVG-20010904/DTD/svg10.dtd">
<svg version="1.0" xmlns="http://www.w3.org/2000/svg"
 width="48.000000pt" height="48.000000pt" viewBox="0 0 48.000000 48.000000"
 preserveAspectRatio="xMidYMid meet">

<g transform="translate(0.000000,48.000000) scale(0.100000,-0.100000)"
fill="#000000" stroke="none">
<path d="M105 454 c-38 -13 -73 -28 -77 -32 -8 -8 54 -302 68 -324 4 -6 50
-30 102 -55 l96 -44 45 17 c26 9 49 19 53 23 11 9 69 291 62 302 -6 11 -259
139 -271 138 -5 0 -39 -11 -78 -25z m215 -49 c72 -36 130 -69 130 -74 0 -5
-36 -21 -80 -36 l-80 -27 0 -123 0 -124 -87 40 c-49 22 -92 44 -97 49 -9 9
-79 301 -73 307 5 4 139 51 150 52 4 1 66 -28 137 -64z"/>
<path d="M113 437 c-34 -12 -65 -25 -68 -29 -4 -4 47 -34 114 -67 67 -34 121
-59 121 -56 0 16 -86 175 -95 174 -5 0 -38 -10 -72 -22z"/>
<path d="M167 273 c-11 -10 -8 -25 4 -18 5 4 19 -1 30 -11 15 -13 16 -19 7
-26 -8 -5 -1 -8 20 -8 30 0 32 2 32 33 0 20 -3 27 -9 19 -6 -10 -10 -10 -21 3
-13 15 -51 21 -63 8z"/>
<path d="M99 241 c9 -6 10 -11 2 -15 -18 -12 -12 -54 11 -76 26 -24 34 -20 17
8 -7 11 -9 28 -5 38 6 16 9 16 16 4 7 -11 10 -6 10 18 0 30 -2 32 -32 32 -23
0 -29 -3 -19 -9z"/>
<path d="M248 173 c-4 -17 -14 -23 -33 -23 -15 0 -24 4 -20 10 11 18 -12 10
-31 -11 -18 -20 -18 -21 1 -35 22 -16 39 -19 30 -4 -4 6 7 10 25 10 33 0 44
14 38 52 l-3 23 -7 -22z"/>
</g>
</svg>
